HIERARCHY
ROOT Hips
{
    OFFSET 0.000000 0.000000 0.000000
    CHANNELS 6 Xposition Yposition Zposition Zrotation Xrotation Yrotation
    JOINT Spine
    {
        OFFSET -0.000000 7.236184 0.000000
        CHANNELS 3 Zrotation Xrotation Yrotation
        JOINT Spine1
        {
            OFFSET -0.000000 20.420147 0.000000
            CHANNELS 3 Zrotation Xrotation Yrotation
            JOINT Neck
            {
                OFFSET -0.000000 20.336288 1.848754
                CHANNELS 3 Zrotation Xrotation Yrotation
                JOINT Head
                {
                    OFFSET -0.000000 12.354461 -1.764923
                    CHANNELS 3 Zrotation Xrotation Yrotation
                    End Site
                    {
                        OFFSET -0.000000 22.061537 0.000000
                    }
                }
            }
            JOINT LeftShoulder
            {
                OFFSET 3.573296 18.396038 -0.314103
                CHANNELS 3 Zrotation Xrotation Yrotation
                JOINT LeftArm
                {
                    OFFSET 10.880760 0.000000 0.000000
                    CHANNELS 3 Zrotation Xrotation Yrotation
                    JOINT LeftForeArm
                    {
                        OFFSET 27.185530 0.000000 0.000000
                        CHANNELS 3 Zrotation Xrotation Yrotation
                        JOINT LeftHand
                        {
                            OFFSET 27.825975 0.000000 0.000000
                            CHANNELS 3 Zrotation Xrotation Yrotation
                            End Site
                            {
                                OFFSET 13.236923 0.000000 0.000000
                            }
                        }
                    }
                }
            }
            JOINT RightShoulder
            {
                OFFSET -3.474926 18.396038 -0.314103
                CHANNELS 3 Zrotation Xrotation Yrotation
                JOINT RightArm
                {
                    OFFSET -10.880760 0.000000 0.000000
                    CHANNELS 3 Zrotation Xrotation Yrotation
                    JOINT RightForeArm
                    {
                        OFFSET -27.185530 0.000000 0.000000
                        CHANNELS 3 Zrotation Xrotation Yrotation
                        JOINT RightHand
                        {
                            OFFSET -27.825975 0.000000 0.000000
                            CHANNELS 3 Zrotation Xrotation Yrotation
                            End Site
                            {
                                OFFSET -13.236923 0.000000 0.000000
                            }
                        }
                    }
                }
            }
        }
    }
    JOINT LeftUpLeg
    {
        OFFSET 8.824615 0.000000 0.000000
        CHANNELS 3 Zrotation Xrotation Yrotation
        JOINT LeftLeg
        {
            OFFSET -0.000000 -35.111282 0.000000
            CHANNELS 3 Zrotation Xrotation Yrotation
            JOINT LeftFoot
            {
                OFFSET -0.000000 -42.324711 0.000000
                CHANNELS 3 Zrotation Xrotation Yrotation
                JOINT LeftToeBase
                {
                    OFFSET -0.000000 -5.735999 13.236923
                    CHANNELS 3 Zrotation Xrotation Yrotation
                    End Site
                    {
                        OFFSET -0.000000 0.000000 3.529846
                    }
                }
            }
        }
    }
    JOINT RightUpLeg
    {
        OFFSET -8.824615 0.000000 0.000000
        CHANNELS 3 Zrotation Xrotation Yrotation
        JOINT RightLeg
        {
            OFFSET -0.000000 -35.111282 0.000000
            CHANNELS 3 Zrotation Xrotation Yrotation
            JOINT RightFoot
            {
                OFFSET -0.000000 -42.324711 0.000000
                CHANNELS 3 Zrotation Xrotation Yrotation
                JOINT RightToeBase
                {
                    OFFSET -0.000000 -5.735999 13.236923
                    CHANNELS 3 Zrotation Xrotation Yrotation
                    End Site
                    {
                        OFFSET -0.000000 0.000000 3.529846
                    }
                }
            }
        }
    }
}
MOTION
Frames:    9
Frame Time:    0.008333
-0.158067    81.958412    103.422562    -2.084725    -11.309210    -172.377441    -0.280654    -11.154827    -0.097345    1.231762    12.237060    -0.202917    3.608870    14.192058    -7.538570    -5.667199    -40.958744    -10.673851    10.801199    3.501788    -11.917635    -31.422213    22.774096    -57.064682    32.904221    -14.114232    -39.894989    31.312778    -3.096281    -4.167267    -8.081353    8.895409    11.638954    20.232754    16.888569    37.269207    -38.260723    -12.704910    52.041355    -20.849514    6.246997    2.840399    4.222300    -27.591772    -4.862108    0.658913    30.137375    8.630471    -11.157574    -6.638779    -18.263069    -0.290303    -3.559917    0.323925    -4.217650    -22.848204    2.158609    2.342896    29.375740    5.706793    -3.569575    -12.628214    -20.262007    -1.718563    -1.711880    1.863169    
-0.085993    82.072617    103.183815    -2.275865    -11.339522    -172.368546    -0.157513    -11.493505    -0.091179    1.249732    11.935328    -0.206789    3.649914    14.769716    -7.612798    -6.287790    -40.461281    -11.008802    10.250352    4.461086    -10.794801    -31.980455    23.894352    -55.336647    33.143059    -14.344197    -41.816734    31.641451    -2.555307    -4.036787    -7.654508    9.519271    10.462049    20.924038    17.752966    35.898201    -38.575279    -13.508097    54.180229    -20.878283    6.592650    2.672727    4.126823    -27.184362    -4.854311    0.603659    29.644354    8.735616    -11.121084    -6.391764    -18.341003    -0.303999    -3.631170    0.339254    -4.353790    -22.414148    2.134007    2.336525    28.879875    5.627203    -3.603521    -12.594950    -20.176048    -1.706197    -1.677521    1.849674    
-0.019122    82.182159    102.951706    -2.468839    -11.391310    -172.376251    -0.042211    -11.816525    -0.085331    1.289002    11.618471    -0.211944    3.658380    15.300812    -7.673274    -6.915275    -39.974854    -11.329061    9.699593    5.401493    -9.629073    -32.598015    25.005993    -53.549252    33.319977    -14.543975    -43.622684    31.945560    -2.031203    -3.911088    -7.251277    10.135211    9.251308    21.636969    18.578438    34.508530    -38.817413    -14.288628    56.232983    -20.882828    6.915505    2.498302    4.032826    -26.808218    -4.819010    0.550948    29.168648    8.818928    -11.080561    -6.157475    -18.410156    -0.316705    -3.701090    0.353481    -4.494077    -22.019630    2.083172    2.311338    28.404213    5.577999    -3.634472    -12.564104    -20.077160    -1.696025    -1.645813    1.838564    
0.043812    82.287216    102.724686    -2.665081    -11.464066    -172.402283    0.068024    -12.121683    -0.077863    1.347374    11.280159    -0.218011    3.638760    15.788985    -7.719039    -7.555906    -39.497265    -11.636993    9.144572    6.334448    -8.412233    -33.291473    26.112104    -51.682175    33.440285    -14.711993    -45.322132    32.221657    -1.522264    -3.790692    -6.864778    10.748220    7.996562    22.377466    19.377867    33.083752    -39.006519    -15.050546    58.212185    -20.873020    7.221693    2.318197    3.939705    -26.460533    -4.758400    0.499517    28.709110    8.880134    -11.035731    -5.937256    -18.466753    -0.329442    -3.768723    0.367746    -4.638993    -21.663256    2.007175    2.269232    27.948784    5.559927    -3.661909    -12.536598    -19.966434    -1.688143    -1.616514    1.829945    
0.102531    82.385727    102.505875    -2.862013    -11.556492    -172.447739    0.171841    -12.402520    -0.068682    1.426072    10.923882    -0.223562    3.590132    16.225101    -7.748635    -8.198804    -39.034546    -11.927075    8.587803    7.248149    -7.161534    -34.065079    27.192972    -49.747852    33.504917    -14.843269    -46.891060    32.461830    -1.035211    -3.677539    -6.499603    11.350391    6.710730    23.140469    20.142521    31.637489    -39.152794    -15.782218    60.092216    -20.857668    7.510933    2.136799    3.848274    -26.146517    -4.676975    0.449165    28.274021    8.921532    -10.987834    -5.736369    -18.508717    -0.343246    -3.830876    0.383200    -4.786390    -21.351439    1.910542    2.213901    27.522642    5.572091    -3.686038    -12.512943    -19.847969    -1.682752    -1.590376    1.824034    
0.157481    82.476997    102.295555    -3.058819    -11.667306    -172.512894    0.271693    -12.656660    -0.056661    1.521474    10.549695    -0.227873    3.518429    16.608723    -7.761369    -8.844682    -38.588589    -12.199588    8.030073    8.142333    -5.883280    -34.931328    28.238073    -47.736874    33.518776    -14.933233    -48.327454    32.664715    -0.572548    -3.570487    -6.150005    11.937056    5.395563    23.929314    20.873148    30.161993    -39.264957    -16.481627    61.873657    -20.844845    7.785334    1.957504    3.758543    -25.866467    -4.579661    0.399103    27.865971    8.948238    -10.938677    -5.556758    -18.536552    -0.359241    -3.884073    0.401099    -4.935086    -21.085056    1.798568    2.148762    27.128679    5.611573    -3.706570    -12.492862    -19.724888    -1.679749    -1.567758    1.820720    
0.209275    82.560661    102.092972    -3.255250    -11.795547    -172.597778    0.367877    -12.883598    -0.042391    1.637337    10.157649    -0.229776    3.422030    16.940184    -7.757227    -9.493108    -38.158466    -12.454702    7.463957    9.018473    -4.580204    -35.906769    29.239107    -45.625095    33.481869    -14.980598    -49.638973    32.833523    -0.130718    -3.469887    -5.814183    12.504055    4.046018    24.753948    21.570669    28.641838    -39.347210    -17.149025    63.567795    -20.841600    8.048171    1.782525    3.670207    -25.619551    -4.471301    0.348551    27.485970    8.966021    -10.888812    -5.399934    -18.551601    -0.378452    -3.926407    0.422582    -5.084328    -20.863678    1.676280    2.076976    26.768650    5.675900    -3.723835    -12.476795    -19.600782    -1.678977    -1.549138    1.819836    
0.257536    82.634911    101.900948    -3.447202    -11.937544    -172.700241    0.462509    -13.078936    -0.025488    1.767042    9.754108    -0.229206    3.309438    17.217571    -7.735816    -10.135806    -37.753773    -12.689364    6.899612    9.862834    -3.280448    -36.994724    30.166082    -43.424751    33.396362    -14.981482    -50.811573    32.968620    0.285536    -3.376144    -5.489494    13.038124    2.684959    25.608166    22.220465    27.086685    -39.399708    -17.772497    65.155930    -20.853405    8.297216    1.617104    3.584658    -25.409039    -4.359031    0.297949    27.141785    8.980535    -10.838924    -5.270364    -18.555468    -0.401043    -3.955771    0.447833    -5.230159    -20.690525    1.550515    2.002197    26.451092    5.761471    -3.738826    -12.465841    -19.481382    -1.680073    -1.535269    1.820988    
0.303096    82.699898    101.717400    -3.635631    -12.092054    -172.819534    0.558394    -13.243761    -0.005810    1.909324    9.337177    -0.226289    3.184574    17.446793    -7.697082    -10.778607    -37.372856    -12.906258    6.332449    10.680413    -1.981279    -38.220551    31.011620    -41.096653    33.261635    -14.933090    -51.862217    33.077137    0.681014    -3.290222    -5.167735    13.536273    1.305247    26.506762    22.825211    25.465065    -39.423740    -18.356783    66.659859    -20.885689    8.535276    1.462695    3.500769    -25.231672    -4.247883    0.246494    26.832081    8.997655    -10.787165    -5.169049    -18.549925    -0.427510    -3.972740    0.477404    -5.372468    -20.562725    1.425344    1.926135    26.175976    5.865578    -3.752549    -12.461209    -19.369223    -1.682421    -1.525919    1.823509    
